<svg xmlns="http://www.w3.org/2000/svg" xmlns:xlink="http://www.w3.org/1999/xlink" width="500" zoomAndPan="magnify" viewBox="0 0 375 374.999991" height="500" preserveAspectRatio="xMidYMid meet" version="1.0"><defs><clipPath id="c5c9cc3607"><path d="M 22.21875 22.21875 L 352.78125 22.21875 L 352.78125 352.78125 L 22.21875 352.78125 Z M 22.21875 22.21875 " clip-rule="nonzero"/></clipPath><clipPath id="71bad6f3f9"><path d="M 187.5 22.21875 C 96.21875 22.21875 22.21875 96.21875 22.21875 187.5 C 22.21875 278.78125 96.21875 352.78125 187.5 352.78125 C 278.78125 352.78125 352.78125 278.78125 352.78125 187.5 C 352.78125 96.21875 278.78125 22.21875 187.5 22.21875 Z M 187.5 22.21875 " clip-rule="nonzero"/></clipPath><clipPath id="652162fff9"><path d="M 230.796875 81.40625 L 293.445312 81.40625 L 293.445312 144.058594 L 230.796875 144.058594 Z M 230.796875 81.40625 " clip-rule="nonzero"/></clipPath><clipPath id="588b5969d0"><path d="M 262.121094 81.40625 C 244.820312 81.40625 230.796875 95.433594 230.796875 112.734375 C 230.796875 130.035156 244.820312 144.058594 262.121094 144.058594 C 279.421875 144.058594 293.445312 130.035156 293.445312 112.734375 C 293.445312 95.433594 279.421875 81.40625 262.121094 81.40625 Z M 262.121094 81.40625 " clip-rule="nonzero"/></clipPath><clipPath id="3bcd39326d"><path d="M 231.085938 156.175781 L 293.738281 156.175781 L 293.738281 218.824219 L 231.085938 218.824219 Z M 231.085938 156.175781 " clip-rule="nonzero"/></clipPath><clipPath id="dda3ccf182"><path d="M 262.414062 156.175781 C 245.113281 156.175781 231.085938 170.199219 231.085938 187.5 C 231.085938 204.800781 245.113281 218.824219 262.414062 218.824219 C 279.710938 218.824219 293.738281 204.800781 293.738281 187.5 C 293.738281 170.199219 279.710938 156.175781 262.414062 156.175781 Z M 262.414062 156.175781 " clip-rule="nonzero"/></clipPath><clipPath id="bc859c2175"><path d="M 230.796875 230.941406 L 293.445312 230.941406 L 293.445312 293.59375 L 230.796875 293.59375 Z M 230.796875 230.941406 " clip-rule="nonzero"/></clipPath><clipPath id="e6e4e59a41"><path d="M 262.121094 230.941406 C 244.820312 230.941406 230.796875 244.964844 230.796875 262.265625 C 230.796875 279.566406 244.820312 293.59375 262.121094 293.59375 C 279.421875 293.59375 293.445312 279.566406 293.445312 262.265625 C 293.445312 244.964844 279.421875 230.941406 262.121094 230.941406 Z M 262.121094 230.941406 " clip-rule="nonzero"/></clipPath><clipPath id="6fb40b72be"><path d="M 156.105469 81.40625 L 218.753906 81.40625 L 218.753906 144.058594 L 156.105469 144.058594 Z M 156.105469 81.40625 " clip-rule="nonzero"/></clipPath><clipPath id="c5b6de75a8"><path d="M 187.429688 81.40625 C 170.128906 81.40625 156.105469 95.433594 156.105469 112.734375 C 156.105469 130.035156 170.128906 144.058594 187.429688 144.058594 C 204.730469 144.058594 218.753906 130.035156 218.753906 112.734375 C 218.753906 95.433594 204.730469 81.40625 187.429688 81.40625 Z M 187.429688 81.40625 " clip-rule="nonzero"/></clipPath><clipPath id="b1cf6e2784"><path d="M 81.261719 81.40625 L 143.914062 81.40625 L 143.914062 144.058594 L 81.261719 144.058594 Z M 81.261719 81.40625 " clip-rule="nonzero"/></clipPath><clipPath id="85773748e8"><path d="M 112.585938 81.40625 C 95.289062 81.40625 81.261719 95.433594 81.261719 112.734375 C 81.261719 130.035156 95.289062 144.058594 112.585938 144.058594 C 129.886719 144.058594 143.914062 130.035156 143.914062 112.734375 C 143.914062 95.433594 129.886719 81.40625 112.585938 81.40625 Z M 112.585938 81.40625 " clip-rule="nonzero"/></clipPath><clipPath id="daf50ea690"><path d="M 81.261719 156.097656 L 143.914062 156.097656 L 143.914062 218.75 L 81.261719 218.75 Z M 81.261719 156.097656 " clip-rule="nonzero"/></clipPath><clipPath id="3da86b8560"><path d="M 112.585938 156.097656 C 95.289062 156.097656 81.261719 170.125 81.261719 187.425781 C 81.261719 204.726562 95.289062 218.75 112.585938 218.75 C 129.886719 218.75 143.914062 204.726562 143.914062 187.425781 C 143.914062 170.125 129.886719 156.097656 112.585938 156.097656 Z M 112.585938 156.097656 " clip-rule="nonzero"/></clipPath><clipPath id="5685d9787b"><path d="M 81.261719 230.941406 L 143.914062 230.941406 L 143.914062 293.59375 L 81.261719 293.59375 Z M 81.261719 230.941406 " clip-rule="nonzero"/></clipPath><clipPath id="c6802c9031"><path d="M 112.585938 230.941406 C 95.289062 230.941406 81.261719 244.964844 81.261719 262.265625 C 81.261719 279.566406 95.289062 293.59375 112.585938 293.59375 C 129.886719 293.59375 143.914062 279.566406 143.914062 262.265625 C 143.914062 244.964844 129.886719 230.941406 112.585938 230.941406 Z M 112.585938 230.941406 " clip-rule="nonzero"/></clipPath><clipPath id="62ecd623bf"><path d="M 156.027344 230.789062 L 218.679688 230.789062 L 218.679688 293.441406 L 156.027344 293.441406 Z M 156.027344 230.789062 " clip-rule="nonzero"/></clipPath><clipPath id="492b4e614c"><path d="M 187.355469 230.789062 C 170.054688 230.789062 156.027344 244.816406 156.027344 262.113281 C 156.027344 279.414062 170.054688 293.441406 187.355469 293.441406 C 204.65625 293.441406 218.679688 279.414062 218.679688 262.113281 C 218.679688 244.816406 204.65625 230.789062 187.355469 230.789062 Z M 187.355469 230.789062 " clip-rule="nonzero"/></clipPath><clipPath id="35989d027e"><path d="M 156.105469 156.097656 L 217.3125 156.097656 L 217.3125 217.304688 L 156.105469 217.304688 Z M 156.105469 156.097656 " clip-rule="nonzero"/></clipPath><clipPath id="2e28d91d25"><path d="M 187.414062 156.097656 C 170.121094 156.097656 156.105469 170.117188 156.105469 187.40625 C 156.105469 204.699219 170.121094 218.71875 187.414062 218.71875 C 204.707031 218.71875 218.722656 204.699219 218.722656 187.40625 C 218.722656 170.117188 204.707031 156.097656 187.414062 156.097656 Z M 187.414062 156.097656 " clip-rule="nonzero"/></clipPath></defs><g clip-path="url(#c5c9cc3607)"><g clip-path="url(#71bad6f3f9)"><path fill="#ffffff" d="M 22.21875 22.21875 L 352.78125 22.21875 L 352.78125 352.78125 L 22.21875 352.78125 Z M 22.21875 22.21875 " fill-opacity="1" fill-rule="nonzero"/></g></g><g clip-path="url(#652162fff9)"><g clip-path="url(#588b5969d0)"><path fill="#000000" d="M 230.796875 81.40625 L 293.445312 81.40625 L 293.445312 144.058594 L 230.796875 144.058594 Z M 230.796875 81.40625 " fill-opacity="1" fill-rule="nonzero"/></g></g><g clip-path="url(#3bcd39326d)"><g clip-path="url(#dda3ccf182)"><path fill="#000000" d="M 231.085938 156.175781 L 293.738281 156.175781 L 293.738281 218.824219 L 231.085938 218.824219 Z M 231.085938 156.175781 " fill-opacity="1" fill-rule="nonzero"/></g></g><g clip-path="url(#bc859c2175)"><g clip-path="url(#e6e4e59a41)"><path fill="#000000" d="M 230.796875 230.941406 L 293.445312 230.941406 L 293.445312 293.59375 L 230.796875 293.59375 Z M 230.796875 230.941406 " fill-opacity="1" fill-rule="nonzero"/></g></g><g clip-path="url(#6fb40b72be)"><g clip-path="url(#c5b6de75a8)"><path fill="#000000" d="M 156.105469 81.40625 L 218.753906 81.40625 L 218.753906 144.058594 L 156.105469 144.058594 Z M 156.105469 81.40625 " fill-opacity="1" fill-rule="nonzero"/></g></g><g clip-path="url(#b1cf6e2784)"><g clip-path="url(#85773748e8)"><path fill="#000000" d="M 81.261719 81.40625 L 143.914062 81.40625 L 143.914062 144.058594 L 81.261719 144.058594 Z M 81.261719 81.40625 " fill-opacity="1" fill-rule="nonzero"/></g></g><g clip-path="url(#daf50ea690)"><g clip-path="url(#3da86b8560)"><path fill="#000000" d="M 81.261719 156.097656 L 143.914062 156.097656 L 143.914062 218.75 L 81.261719 218.75 Z M 81.261719 156.097656 " fill-opacity="1" fill-rule="nonzero"/></g></g><g clip-path="url(#5685d9787b)"><g clip-path="url(#c6802c9031)"><path fill="#000000" d="M 81.261719 230.941406 L 143.914062 230.941406 L 143.914062 293.59375 L 81.261719 293.59375 Z M 81.261719 230.941406 " fill-opacity="1" fill-rule="nonzero"/></g></g><g clip-path="url(#62ecd623bf)"><g clip-path="url(#492b4e614c)"><path fill="#000000" d="M 156.027344 230.789062 L 218.679688 230.789062 L 218.679688 293.441406 L 156.027344 293.441406 Z M 156.027344 230.789062 " fill-opacity="1" fill-rule="nonzero"/></g></g><g clip-path="url(#35989d027e)"><g clip-path="url(#2e28d91d25)"><path stroke-linecap="butt" transform="matrix(2.914596, 0, 0, 2.914596, 156.104994, 156.098839)" fill="none" stroke-linejoin="miter" d="M 10.742166 -0.000405648 C 4.808935 -0.000405648 0.000162802 4.809706 0.000162802 10.741597 C 0.000162802 16.674828 4.808935 21.484941 10.742166 21.484941 C 16.675397 21.484941 21.484169 16.674828 21.484169 10.741597 C 21.484169 4.809706 16.675397 -0.000405648 10.742166 -0.000405648 Z M 10.742166 -0.000405648 " stroke="#000000" stroke-width="5.146511" stroke-opacity="1" stroke-miterlimit="4"/></g></g></svg>